<svg xmlns="http://www.w3.org/2000/svg" viewBox="0 0 714 442.23">
  <defs>
    <style>.cls-1,.cls-2{fill:#fff;}.cls-2,.cls-3{stroke:#fff;stroke-miterlimit:10;}.cls-3{fill:none;stroke-width:13px;}</style>
  </defs>
  <title>Asset 1</title>
  <g id="Layer_2" data-name="Layer 2">
    <g id="white-on-black">
      <path class="cls-1" d="M116.79,51.08h54.74l78.78,240H204.08l-16.64-51.78H98.3l-17,51.78H35.06ZM109.4,206.42h67.31L143.42,103.23Z"/>
      <path class="cls-1" d="M260.3,51.08H414.9V88.81h-111v63.24H407.87v37.73H303.94V253h111v38.09H260.3Z"/>
      <path class="cls-1" d="M488.13,51.08,554,193.85,619.8,51.08h60.28v240h-44V108.78L568,264.86H539.54L469.27,103.6V291.12H425.62v-240Z"/>
      <path class="cls-2" d="M73.43,380.17q6.21,5.41,6.21,15.46t-6.21,15.45q-6.21,5.4-17.32,5.4H45v23.84H33V374.77H56.11Q67.21,374.77,73.43,380.17ZM56.11,406.08c3.7,0,6.5-1,8.38-2.93a10.36,10.36,0,0,0,2.83-7.52,10.55,10.55,0,0,0-2.83-7.58c-1.88-2-4.68-3-8.38-3H45v21Z"/>
      <path class="cls-2" d="M99,374.77v27.37h28.59V374.77h11.91v65.55H127.62V412.54H99v27.78H87.11V374.77Z"/>
      <path class="cls-2" d="M178.72,373.46a32.18,32.18,0,0,1,12,2.17,25.45,25.45,0,0,1,9.39,6.41q8.28,8.9,8.28,25.46t-8.28,25.75q-7.87,8.49-21.51,8.48t-21.41-8.68q-8.28-9-8.28-25.55,0-16.77,8.28-25.66Q165,373.46,178.72,373.46Zm17.37,34.19q0-11.26-4.69-17.38a16.26,16.26,0,0,0-25.41,0q-4.74,6.12-4.74,17.38T166,424.92a16.43,16.43,0,0,0,25.41,0Q196.1,418.91,196.09,407.65Z"/>
      <path class="cls-2" d="M208.92,374.77h52.52v10.3h-20.3v55.25H229.22V385.07h-20.3Z"/>
      <path class="cls-2" d="M291.74,373.46a32.18,32.18,0,0,1,12,2.17,25.53,25.53,0,0,1,9.39,6.41q8.28,8.9,8.28,25.46t-8.28,25.75q-7.87,8.49-21.51,8.48t-21.41-8.68q-8.28-9-8.29-25.55,0-16.77,8.29-25.66Q278,373.46,291.74,373.46Zm17.37,34.19q0-11.26-4.69-17.38a16.26,16.26,0,0,0-25.41,0q-4.74,6.12-4.74,17.38T279,424.92a16.43,16.43,0,0,0,25.41,0Q309.12,418.91,309.11,407.65Z"/>
      <path class="cls-2" d="M370.92,429.92q-4.23,11.81-16.26,11.81a25.57,25.57,0,0,1-20.3-9.29q-8.28-9.58-8.28-24.54,0-15.75,8.89-25.25,8.58-9.19,22.12-9.19,9.18,0,15.4,4T382.24,390L370,392.85q-5.34-8.58-13.53-8.58-7.47,0-12.42,6.36-5.16,6.47-5.15,17.27,0,10.2,4.64,16.56a15.19,15.19,0,0,0,22.73,2.12c2.83-2.82,4.24-6.7,4.24-11.61v-.4l-14.75-.31v-7.67h26.16v33.73h-9.69Z"/>
      <path class="cls-2" d="M442.94,394.87A18.58,18.58,0,0,1,439,406.79a20.55,20.55,0,0,1-11.32,6.87l17.58,26.66H429.7l-14.44-25.55h-9.09v25.55H394.25V374.77h24.24q11.63,0,18.08,5.56Q442.93,385.68,442.94,394.87Zm-25.56,11.92q6.57,0,9.9-3a10.06,10.06,0,0,0,3.33-7.88,10.57,10.57,0,0,0-3-7.88q-3-3-9.09-3H406.17v21.72Z"/>
      <path class="cls-2" d="M469.6,374.77h14.95l21.51,65.55H493.43l-4.54-14.14H464.55l-4.65,14.14H447.28Zm-2,42.42H486L476.87,389Z"/>
      <path class="cls-2" d="M553,380.17q6.22,5.41,6.22,15.46T553,411.08q-6.21,5.4-17.32,5.4H524.54v23.84h-12V374.77h23.13Q546.76,374.77,553,380.17Zm-17.32,25.91c3.7,0,6.5-1,8.39-2.93a10.39,10.39,0,0,0,2.82-7.52,10.59,10.59,0,0,0-2.82-7.58c-1.89-2-4.69-3-8.39-3H524.54v21Z"/>
      <path class="cls-2" d="M578.58,374.77v27.37h28.58V374.77h11.92v65.55H607.16V412.54H578.58v27.78H566.66V374.77Z"/>
      <path class="cls-2" d="M639.48,374.77l14.44,26.16,15.15-26.16h14l-23.33,38.48v27.07H647.86V413.25l-22.52-38.48Z"/>
      <polyline class="cls-3" points="707.5 266.5 707.5 335.5 6.5 335.5 6.5 266.5"/>
      <polyline class="cls-3" points="6.5 78.5 6.5 6.5 707.5 6.5 707.5 78.5"/>
    </g>
  </g>
</svg>
