<svg class="h-48" xmlns="http://www.w3.org/2000/svg" viewBox="0 0 714 456.06"><defs><style>.cls-1{font-size:369.86px;font-family:Karla-Bold, Karla;font-weight:700;letter-spacing:-0.09em;}.cls-1,.cls-3{fill:#fff;}.cls-2{letter-spacing:-0.14em;}.cls-3,.cls-4{stroke:#fff;stroke-miterlimit:10;}.cls-4{fill:none;stroke-width:13px;}</style></defs><title>white svg</title><g id="Layer_2" data-name="Layer 2"><g id="white-on-black"><text class="cls-1" transform="translate(26.92 304.94)">A<tspan class="cls-2" x="199.35" y="0">EM</tspan></text><path class="cls-3" d="M73.43,394q6.21,5.4,6.21,15.45t-6.21,15.46q-6.21,5.4-17.32,5.4H45v23.83H33V388.6H56.11Q67.21,388.6,73.43,394ZM56.11,419.91c3.7,0,6.5-1,8.38-2.93a10.38,10.38,0,0,0,2.83-7.53,10.53,10.53,0,0,0-2.83-7.57c-1.88-2-4.68-3-8.38-3H45v21Z"/><path class="cls-3" d="M99,388.6V416h28.59V388.6h11.91v65.54H127.62V426.37H99v27.77H87.11V388.6Z"/><path class="cls-3" d="M178.72,387.28a32.38,32.38,0,0,1,12,2.17,25.47,25.47,0,0,1,9.39,6.42q8.28,8.88,8.28,25.45t-8.28,25.75q-7.87,8.49-21.51,8.49t-21.41-8.69q-8.28-9-8.28-25.55,0-16.77,8.28-25.65Q165,387.29,178.72,387.28Zm17.37,34.19q0-11.27-4.69-17.37a16.26,16.26,0,0,0-25.41,0q-4.74,6.11-4.74,17.37T166,438.74a16.43,16.43,0,0,0,25.41,0Q196.1,432.74,196.09,421.47Z"/><path class="cls-3" d="M208.92,388.6h52.52v10.3h-20.3v55.24H229.22V398.9h-20.3Z"/><path class="cls-3" d="M291.74,387.28a32.38,32.38,0,0,1,12,2.17,25.55,25.55,0,0,1,9.39,6.42q8.28,8.88,8.28,25.45t-8.28,25.75q-7.87,8.49-21.51,8.49t-21.41-8.69q-8.28-9-8.29-25.55,0-16.77,8.29-25.65Q278,387.29,291.74,387.28Zm17.37,34.19q0-11.27-4.69-17.37a16.26,16.26,0,0,0-25.41,0q-4.74,6.11-4.74,17.37T279,438.74a16.43,16.43,0,0,0,25.41,0Q309.12,432.74,309.11,421.47Z"/><path class="cls-3" d="M370.92,443.74q-4.23,11.82-16.26,11.82a25.6,25.6,0,0,1-20.3-9.29q-8.28-9.6-8.28-24.55,0-15.75,8.89-25.25,8.58-9.18,22.12-9.19,9.18,0,15.4,4t9.75,12.58L370,406.68q-5.34-8.6-13.53-8.59-7.47,0-12.42,6.36-5.16,6.46-5.15,17.27,0,10.21,4.64,16.57a15.21,15.21,0,0,0,22.73,2.12q4.25-4.25,4.24-11.62v-.4l-14.75-.3v-7.68h26.16v33.73h-9.69Z"/><path class="cls-3" d="M442.94,408.69A18.58,18.58,0,0,1,439,420.61a20.55,20.55,0,0,1-11.32,6.87l17.58,26.66H429.7l-14.44-25.55h-9.09v25.55H394.25V388.6h24.24q11.63,0,18.08,5.55Q442.93,399.51,442.94,408.69Zm-25.56,11.92q6.57,0,9.9-3a10,10,0,0,0,3.33-7.87,10.54,10.54,0,0,0-3-7.88q-3-3-9.09-3H406.17v21.71Z"/><path class="cls-3" d="M469.6,388.6h14.95l21.51,65.54H493.43L488.89,440H464.55l-4.65,14.13H447.28Zm-2,42.42H486l-9.09-28.18Z"/><path class="cls-3" d="M553,394q6.22,5.4,6.22,15.45T553,424.91q-6.21,5.4-17.32,5.4H524.54v23.83h-12V388.6h23.13Q546.76,388.6,553,394Zm-17.32,25.91q5.55,0,8.39-2.93a10.42,10.42,0,0,0,2.82-7.53,10.56,10.56,0,0,0-2.82-7.57q-2.84-3-8.39-3H524.54v21Z"/><path class="cls-3" d="M578.58,388.6V416h28.58V388.6h11.92v65.54H607.16V426.37H578.58v27.77H566.66V388.6Z"/><path class="cls-3" d="M639.48,388.6l14.44,26.16,15.15-26.16h14l-23.33,38.48v27.06H647.86V427.08L625.34,388.6Z"/><polyline class="cls-4" points="707.5 280.32 707.5 349.32 6.5 349.32 6.5 280.32"/><polyline class="cls-4" points="6.5 92.32 6.5 20.32 707.5 20.32 707.5 92.32"/></g></g></svg>
