<svg id="white-on-black" xmlns="http://www.w3.org/2000/svg" viewBox="0 0 720 480"><defs><style>.cls-1{font-size:369.86px;font-family:Karla-Bold, Karla;font-weight:700;letter-spacing:-0.09em;}.cls-1,.cls-3{fill:#020406;}.cls-2{letter-spacing:-0.14em;}.cls-3,.cls-4{stroke:#020406;stroke-miterlimit:10;}.cls-4{fill:none;stroke-width:13px;}</style></defs><title>white-on-black-subtitle-01-01</title><text class="cls-1" transform="translate(29.92 317.17)">A<tspan class="cls-2" x="199.35" y="0">EM</tspan></text><path class="cls-3" d="M76.43,406.22q6.21,5.4,6.21,15.45t-6.21,15.46q-6.21,5.4-17.32,5.4H48v23.84H36V400.82H59.11Q70.21,400.82,76.43,406.22ZM59.11,432.13c3.7,0,6.5-1,8.38-2.93a10.37,10.37,0,0,0,2.83-7.53,10.54,10.54,0,0,0-2.83-7.57c-1.88-2-4.68-3-8.38-3H48v21Z"/><path class="cls-3" d="M102,400.82v27.37h28.59V400.82h11.91v65.55H130.62V438.59H102v27.78H90.11V400.82Z"/><path class="cls-3" d="M181.72,399.5a32.18,32.18,0,0,1,12,2.18,25.33,25.33,0,0,1,9.39,6.41q8.28,8.88,8.28,25.45t-8.28,25.76q-7.87,8.47-21.51,8.48t-21.41-8.69q-8.28-9-8.28-25.55,0-16.77,8.28-25.65Q168,399.51,181.72,399.5Zm17.37,34.19q0-11.26-4.69-17.37a16.26,16.26,0,0,0-25.41,0q-4.74,6.1-4.74,17.37T169,451a16.43,16.43,0,0,0,25.41,0Q199.1,445,199.09,433.69Z"/><path class="cls-3" d="M211.92,400.82h52.52v10.3h-20.3v55.25H232.22V411.12h-20.3Z"/><path class="cls-3" d="M294.74,399.5a32.18,32.18,0,0,1,12,2.18,25.41,25.41,0,0,1,9.39,6.41q8.28,8.88,8.28,25.45t-8.28,25.76q-7.87,8.47-21.51,8.48t-21.41-8.69q-8.28-9-8.29-25.55,0-16.77,8.29-25.65Q281,399.51,294.74,399.5Zm17.37,34.19q0-11.26-4.69-17.37a16.26,16.26,0,0,0-25.41,0q-4.74,6.1-4.74,17.37T282,451a16.43,16.43,0,0,0,25.41,0Q312.12,445,312.11,433.69Z"/><path class="cls-3" d="M373.92,456q-4.23,11.82-16.26,11.82a25.6,25.6,0,0,1-20.3-9.29q-8.28-9.6-8.28-24.55,0-15.75,8.89-25.25,8.58-9.18,22.12-9.19,9.18,0,15.4,4t9.75,12.58L373,418.9q-5.34-8.59-13.53-8.59-7.47,0-12.42,6.36-5.16,6.46-5.15,17.27,0,10.21,4.64,16.57a15.21,15.21,0,0,0,22.73,2.12q4.25-4.25,4.24-11.62v-.4l-14.75-.3v-7.68h26.16v33.74h-9.69Z"/><path class="cls-3" d="M445.94,420.92A18.55,18.55,0,0,1,442,432.83a20.55,20.55,0,0,1-11.32,6.87l17.58,26.67H432.7l-14.44-25.56h-9.09v25.56H397.25V400.82h24.24q11.63,0,18.08,5.55Q445.93,411.73,445.94,420.92Zm-25.56,11.91q6.57,0,9.9-3a10,10,0,0,0,3.33-7.87,10.56,10.56,0,0,0-3-7.88q-3-3-9.09-3H409.17v21.71Z"/><path class="cls-3" d="M472.6,400.82h14.95l21.51,65.55H496.43l-4.54-14.14H467.55l-4.65,14.14H450.28Zm-2,42.42H489l-9.09-28.18Z"/><path class="cls-3" d="M556,406.22q6.22,5.4,6.22,15.45T556,437.13q-6.21,5.4-17.32,5.4H527.54v23.84h-12V400.82h23.13Q549.76,400.82,556,406.22Zm-17.32,25.91q5.55,0,8.39-2.93a10.4,10.4,0,0,0,2.82-7.53A10.58,10.58,0,0,0,547,414.1q-2.84-3-8.39-3H527.54v21Z"/><path class="cls-3" d="M581.58,400.82v27.37h28.58V400.82h11.92v65.55H610.16V438.59H581.58v27.78H569.66V400.82Z"/><path class="cls-3" d="M642.48,400.82,656.92,427l15.15-26.16h14L662.78,439.3v27.07H650.86V439.3l-22.52-38.48Z"/><polyline class="cls-4" points="710.5 292.55 710.5 361.55 9.5 361.55 9.5 292.55"/><polyline class="cls-4" points="9.5 104.55 9.5 32.55 710.5 32.55 710.5 104.55"/></svg>